<?xml version="1.0" standalone="no"?>
<!DOCTYPE svg PUBLIC "-//W3C//DTD SVG 1.1//EN" "http://www.w3.org/Graphics/SVG/1.1/DTD/svg11.dtd"><svg t="1696728395342"
    class="icon" viewBox="0 0 1024 1024" version="1.1" xmlns="http://www.w3.org/2000/svg"
    xmlns:xlink="http://www.w3.org/1999/xlink" width="16" height="16">
    <path
        d="M68.686769 348.672h887.138462V184.123077c0-24.182154-13.705846-37.809231-38.045539-37.809231-21.700923 0-43.323077 0.196923-65.063384-0.118154a33.595077 33.595077 0 0 1-7.443693-66.323692 45.686154 45.686154 0 0 1 10.515693-0.945231c21.464615-0.039385 42.929231-0.118154 64.393846 0C979.337846 79.241846 1024 123.431385 1024 181.838769v739.131077C1024 979.495385 978.904615 1024 919.473231 1024H104.723692C44.780308 1024 0.078769 979.810462 0 920.497231V182.114462C0 128.787692 35.997538 87.276308 89.363692 79.832615c12.603077-1.732923 25.442462-0.827077 38.203077-0.827077 14.178462-0.118154 28.356923-0.196923 42.535385 0a33.792 33.792 0 0 1 24.418461 9.373539c6.498462 6.262154 10.161231 14.887385 10.121847 23.867077a33.083077 33.083077 0 0 1-9.885539 24.379077 33.870769 33.870769 0 0 1-24.694154 9.688615c-22.173538 0.196923-44.307692 0-66.481231 0.078769-20.48 0.118154-35.170462 14.099692-35.24923 34.146462-0.157538 54.350769-0.039385 108.701538-0.039385 163.052308 0 1.575385 0.236308 3.150769 0.433231 5.080615h-0.039385z m887.296 68.292923H68.135385v7.246769l0.039384 494.15877c0 25.009231 13.508923 38.242462 38.990769 38.242461h809.826462c25.206154 0 38.872615-13.548308 38.951385-38.439385V416.964923z"
        fill="#ffffff"></path>
    <path
        d="M512 65.654154c21.819077 0 43.795692-0.118154 65.732923 0 20.637538 0 35.918769 14.296615 35.643077 33.083077-0.236308 18.510769-15.36 32.374154-35.761231 32.374154-44.622769 0.118154-89.127385 0.196923-133.671384-0.039385a33.792 33.792 0 0 1-29.065847-17.644308 31.980308 31.980308 0 0 1 1.811693-33.28 34.028308 34.028308 0 0 1 30.877538-14.493538H512z m236.307692 33.122461v63.251693c-0.078769 20.322462-14.257231 34.737231-33.949538 34.619077-19.377231-0.078769-33.398154-14.414769-33.398154-34.422154V34.264615c0-19.928615 14.060308-34.225231 33.595077-34.264615 19.377231 0 33.634462 14.257231 33.752615 34.107077v64.630154z m-404.952615-0.393846c0 21.582769 0.118154 43.126154 0 64.708923a31.744 31.744 0 0 1-18.983385 30.168616 32.886154 32.886154 0 0 1-34.422154-2.599385 30.444308 30.444308 0 0 1-14.099692-26.033231C275.692308 120.398769 275.534769 76.130462 275.968 31.980308a31.389538 31.389538 0 0 1 9.885538-22.961231A33.28 33.28 0 0 1 309.720615 0c18.747077 0.157538 33.319385 14.178462 33.595077 33.161846 0.315077 21.740308 0 43.52 0 65.260308h0.039385z"
        fill="#ffffff"></path>
</svg>