<?xml version="1.0" standalone="no"?>
<!DOCTYPE svg PUBLIC "-//W3C//DTD SVG 1.1//EN" "http://www.w3.org/Graphics/SVG/1.1/DTD/svg11.dtd"><svg t="1696923726346"
    class="icon" viewBox="0 0 1024 1024" version="1.1" xmlns="http://www.w3.org/2000/svg"
    xmlns:xlink="http://www.w3.org/1999/xlink" width="16" height="16">
    <path
        d="M334.569 827.491C260.301 724.256 201.846 627.585 204.67 612.665c3.42-18.07 24.082-28.591 61.89-31.513 102.067-7.891 127.454-18.707 132.835-56.592 4.715-33.197 15.241-36.985 114.905-41.351 88.01-3.852 109.714-0.061 109.714 19.156 0 45.117 49.08 75.047 123.066 75.047 66.963 0 71.982 2.992 71.982 42.912 0 28.33-44.763 102.894-131.731 219.428-175.9 235.702-174.335 235.756-352.762-12.262z m86.733-411.871c-5.271-8.529-4.821-34.48 0.999-57.67 9.889-39.403 16.043-41.846 93.958-37.319 81.021 4.706 83.519 6.337 88.468 57.67l5.093 52.826h-89.467c-49.207 0-93.78-6.978-99.051-15.507z m26.807-190.739c4.769-41.596 11.065-45.69 70.255-45.69 58.514 0 65.016 4.061 65.016 40.634 0 36.297-7.5 41.175-70.255 45.691-68.408 4.921-70.117 3.852-65.016-40.635z m24.36-114.77c-12.945-21.985 19.923-85.334 44.275-85.334 26.519 0 49.979 55.621 34.217 81.124-11.789 19.075-67.965 22.087-78.492 4.208z">
    </path>
    <path
        d="M363.204 851.615C172.664 590.48 169.751 577.412 302.086 577.412c75.01 0 82.292-3.575 99.348-48.762 17.76-47.05 21.989-48.762 120.493-48.762 87.47 0 102.087 4.19 102.087 29.257 0 48.111 34.551 68.267 117.029 68.267 70.206 0 77.974 3.661 77.569 36.571-0.62 50.399-259.251 392.853-301.274 398.918-25.346 3.661-61.012-33.663-154.134-161.287z m65.763-485.504c0-47.536 1.999-48.762 79.531-48.762 57.528 0 82.26 7.113 89.397 25.711 23.597 61.494 12.169 71.813-79.531 71.813-88.494 0-89.397-0.491-89.397-48.762z m19.187-150.349c4.172-29.376 17.186-37.564 66.146-41.616 55.877-4.626 60.952-1.579 60.952 36.571 0 37.835-6.01 41.616-66.146 41.616-59.299 0-65.609-3.784-60.952-36.571zM477.978 85.73c0.136-11.175 7.59-31.289 16.563-44.698 14.151-21.148 19.437-20.292 39.865 6.458 12.953 16.961 19.697 37.076 14.986 44.699-13.331 21.57-71.693 16.292-71.414-6.458z">
    </path>
    <path
        d="M467.233 979.698C385.586 887.584 217.665 638.576 217.665 609.617c0-27.883 11.096-32.205 82.682-32.205 76.942 0 83.959-3.385 101.087-48.762 17.76-47.05 21.989-48.762 120.493-48.762 87.47 0 102.087 4.19 102.087 29.257 0 48.111 34.551 68.267 117.029 68.267 66.017 0 78.019 4.786 78.019 31.112 0 38.21-271.204 407.745-299.247 407.745-11.091 0-34.753-16.457-52.582-36.572z m-38.266-613.587c0-47.589 1.928-48.762 80.175-48.762 65.779 0 82.019 5.811 90.446 32.363 16.114 50.77-3.832 65.161-90.31 65.161-78.398 0-80.311-1.161-80.311-48.762z m25.287-128.565c-20.748-33.57 11.851-66.483 65.848-66.483 47.991 0 55.15 5.277 55.15 40.635 0 35.471-7.107 40.635-55.93 40.635-30.761 0-60.042-6.654-65.069-14.787zM486.762 91.26c-11.569-18.719 6.134-66.483 24.642-66.483 19.147 0 48.87 58.323 36.187 71.006-15.105 15.105-50.316 12.487-60.828-4.521z">
    </path>
    <path
        d="M357.05 825.865C280.388 721.143 217.665 622.399 217.665 606.437c0-23.831 13.958-29.024 78.019-29.024 82.87 0 117.029-20.153 117.029-69.043 0-26.503 11.862-29.464 100.915-25.193 92.525 4.435 101.702 8.217 110.375 45.474 8.41 36.127 18.946 41.183 94.98 45.577 55.442 3.201 88.648 13.094 94.415 28.121 5.115 13.328-48.117 101.024-125.261 206.359-127.922 174.669-155.889 206.749-180.737 207.313-6.031 0.123-73.688-85.433-150.349-190.156z m77.795-435.373c-19.047-49.635 7.023-73.143 81.113-73.143 59.997 0 73.271 5.793 80.996 35.329 13.603 52.019 0.505 62.195-80.059 62.195-49.623 0-75.663-7.737-82.05-24.381z m23.75-146.456c-5.411-5.412-6.124-24.044-1.584-41.405 6.162-23.565 22.482-31.567 64.379-31.567 48.905 0 55.456 4.706 50.93 36.572-3.891 27.396-17.575 37.784-54.54 41.405-27.14 2.66-53.773 0.43-59.185-5.007zM486.762 91.26c-11.569-18.719 6.134-66.483 24.642-66.483 7.669 0 21.381 13.898 30.471 30.883 12.662 23.66 10.585 33.164-8.884 40.635-33.093 12.699-35.425 12.445-46.228-5.037z">
    </path>
    <path
        d="M350.608 811.254C274.603 705.527 219.201 613.108 224.13 600.265c5.935-15.466 35.338-22.853 90.956-22.853 78.315 0 82.646-2.298 91.939-48.762 9.486-47.428 12.322-48.762 103.654-48.762 89.722 0 94.659 2.169 110.901 48.762 15.881 45.556 22.431 48.762 99.624 48.762 55.823 0 85.458 7.38 91.357 22.753 12.026 31.34-264.004 399.938-299.2 399.537-16.277-0.184-82.709-77.106-162.752-188.449z m78.359-427.559c0-49.151 23.129-66.346 89.241-66.346 61.236 0 70.434 4.835 77.277 40.635 7.504 39.257 4.813 40.635-79.375 40.635-47.929 0-87.143-6.716-87.143-14.924z m32.508-181.153c0-28.032 8.651-32.702 52.692-28.444 34.703 3.354 54.532 14.804 58.081 33.538 4.317 22.788-6.161 28.444-52.692 28.444-47.839 0-58.081-5.916-58.081-33.538zM494.226 56.83c18.819-35.164 48.518-29.323 48.518 9.542 0 12.882-14.886 23.422-33.08 23.422-28.195 0-30.475-4.865-15.438-32.963z">
    </path>
    <path
        d="M408.639 882.174C232.672 642.789 211.624 609.458 226.893 594.353c8.334-8.245 51.43-17.258 95.769-20.029 70.757-4.423 81.771-10.007 90.063-45.673 8.473-36.443 18.624-41.126 98.415-45.395 85.57-4.577 89.667-2.906 107.292 43.788 16.804 44.521 25.551 48.962 105.414 53.522 57.051 3.256 87.089 12.108 87.089 25.657 0 31.647-271.159 393.793-294.854 393.793-11.45 0-59.799-53.028-107.441-117.841z m32.603-524.19c6.878-35.982 15.925-40.635 79.016-40.635 65.162 0 71.248 3.471 71.248 40.635 0 37.772-5.568 40.635-79.016 40.635-75.519 0-78.672-1.8-71.248-40.635z m20.233-154.413c0-25.017 10.836-32.508 47.023-32.508 27.885 0 51.038 10.464 56.889 25.711 14.855 38.712 14.145 39.306-47.023 39.306-46.053 0-56.889-6.192-56.889-32.508z m32.508-137.199c0-34.387 27.513-45.547 38.932-15.791 13.901 36.227 12.794 39.212-14.551 39.212-13.41 0-24.381-10.54-24.381-23.422z">
    </path>
    <path
        d="M357.218 803.207C201.58 587.822 200.332 578.117 328.225 577.662c62.988-0.246 71.611-5.087 86.923-49.011 15.991-45.873 22.081-48.762 102.774-48.762 82.302 0 86.17 1.972 95.527 48.762 9.193 45.963 14.207 48.776 87.365 49.011 137.026 0.43 136.164 8.963-22.235 220.033C599.4 903.203 526.817 992.049 517.285 995.132c-9.533 3.084-81.563-83.284-160.067-191.924z m88.003-446.157c0-38.853 4.514-41.243 69.079-36.571 57.426 4.153 69.956 11.167 74.273 41.569 4.736 33.348-1.352 36.571-69.079 36.571-68.834 0-74.273-3.047-74.273-41.569z m19.264-149.415c8.195-43.214 87.944-47.192 98.994-4.939 7.571 28.951 1.221 33.383-47.829 33.383-45.085 0-55.465-5.768-51.165-28.444z m29.498-143.577c0-28.703 34.991-23.704 45.037 6.434 3.539 10.616-5.147 19.302-19.302 19.302s-25.735-11.581-25.735-25.736z">
    </path>
</svg>