<?xml version="1.0" standalone="no"?>
<!DOCTYPE svg PUBLIC "-//W3C//DTD SVG 1.1//EN" "http://www.w3.org/Graphics/SVG/1.1/DTD/svg11.dtd"><svg t="1697783355726"
    class="icon" viewBox="0 0 1024 1024" version="1.1" xmlns="http://www.w3.org/2000/svg"
    xmlns:xlink="http://www.w3.org/1999/xlink" width="16" height="16">
    <path
        d="M802.133 622.933H641.707L691.2 435.2l18.773-68.267L732.16 281.6c5.12-18.773-5.12-37.547-23.893-40.96-18.774-5.12-37.547 5.12-40.96 23.893L640 366.933H436.907l22.186-85.333c5.12-18.773-5.12-37.547-23.893-40.96-18.773-5.12-37.547 5.12-40.96 23.893l-27.307 102.4H221.867c-18.774 0-34.134 15.36-34.134 34.134 0 18.773 15.36 34.133 34.134 34.133H348.16l-49.493 187.733H187.733c-18.773 0-34.133 15.36-34.133 34.134 0 18.773 15.36 34.133 34.133 34.133h92.16l-22.186 85.333c-5.12 18.774 5.12 37.547 23.893 40.96 18.773 5.12 37.547-5.12 40.96-23.893l27.307-102.4 18.773-68.267L418.133 435.2h203.094l-49.494 187.733H460.8c-18.773 0-34.133 15.36-34.133 34.134 0 18.773 15.36 34.133 34.133 34.133h92.16l-22.187 85.333c-5.12 18.774 5.12 37.547 23.894 40.96 18.773 5.12 37.546-5.12 40.96-23.893l27.306-102.4h179.2c18.774 0 34.134-15.36 34.134-34.133 0-18.774-15.36-34.134-34.134-34.134z m34.134-256h-35.84c-18.774 0-34.134 15.36-34.134 34.134 0 18.773 15.36 34.133 34.134 34.133h35.84c18.773 0 34.133-15.36 34.133-34.133 0-18.774-15.36-34.134-34.133-34.134z">
    </path>
</svg>