<?xml version="1.0" standalone="no"?>
<!DOCTYPE svg PUBLIC "-//W3C//DTD SVG 1.1//EN" "http://www.w3.org/Graphics/SVG/1.1/DTD/svg11.dtd"><svg t="1697013001000"
    class="icon" viewBox="0 0 1024 1024" version="1.1" xmlns="http://www.w3.org/2000/svg"
    xmlns:xlink="http://www.w3.org/1999/xlink" width="16" height="16">
    <path
        d="M466.48888853 307.2a22.7555552 22.7555552 0 1 1 0-45.51111147h273.06666667A68.26666667 68.26666667 0 0 1 807.82222187 329.9555552v430.30755627a68.26666667 68.26666667 0 0 1-68.26666667 68.26666666 22.7555552 22.7555552 0 0 1 0-45.51111146 22.7555552 22.7555552 0 0 0 22.75555627-22.7555552V329.9555552a22.7555552 22.7555552 0 0 0-22.75555627-22.7555552h-273.06666667z m35.2256 149.59502187a22.7555552 22.7555552 0 1 1 0-45.5111104h185.0936896a22.7555552 22.7555552 0 1 1 0 45.5111104h-185.0936896z m22.75555627 45.51111146h136.53333333a45.51111147 45.51111147 0 0 1 45.5111104 45.51111147v91.02222187a45.51111147 45.51111147 0 0 1-45.5111104 45.51111146h-136.53333333a45.51111147 45.51111147 0 0 1-45.51111147-45.51111146v-91.02222187a45.51111147 45.51111147 0 0 1 45.51111147-45.51111147z m0 45.51111147v91.02222187h136.53333333v-91.02222187h-136.53333333z m-194.3324448-78.55217813H245.30488853a22.7555552 22.7555552 0 0 1 0-45.51111147h107.58826667a22.7555552 22.7555552 0 0 1 22.75555627 22.75555627v295.7312l34.67946666-27.71626667a22.7555552 22.7555552 0 0 1 28.35342187 35.58968853l-71.58897813 57.1619552a22.7555552 22.7555552 0 0 1-36.95502187-17.74933333V469.2195552zM279.43822187 273.97688853a22.7555552 22.7555552 0 1 1 15.83786666-42.68942186c20.8896 7.73688853 39.86773333 18.88711147 56.8888896 33.3596448 17.52177813 14.9276448 31.22062187 33.13208853 40.91448854 54.43128853a22.7555552 22.7555552 0 1 1-41.41511147 18.8416 109.5452448 109.5452448 0 0 0-28.99057707-38.63893333 142.58631147 142.58631147 0 0 0-43.23555626-25.30417814z">
    </path>
</svg>