<?xml version="1.0" standalone="no"?>
<!DOCTYPE svg PUBLIC "-//W3C//DTD SVG 1.1//EN" "http://www.w3.org/Graphics/SVG/1.1/DTD/svg11.dtd"><svg t="1697183877564"
    class="icon" viewBox="0 0 1024 1024" version="1.1" xmlns="http://www.w3.org/2000/svg"
    xmlns:xlink="http://www.w3.org/1999/xlink" width="16" height="16">
    <path
        d="M111.079998 996.666367l27.147936 0c22.85394899 0 41.591347-18.701911 41.591347-41.591347l0-363.391975c5.890925 5.1102 11.639899 10.18491201 18.772886 14.869262l609.533257 393.591834c80.556619 51.953697 146.385927 16.217786 146.385927-79.70491901l0-816.88670499c0-95.816243-65.82930701-131.658616-146.385927-79.669432l-609.533257 393.698297c-7.132987 4.613375-12.881962 9.794549-18.772886 14.869262l0-363.569412c0-22.85394899-18.737399-41.591347-41.591347-41.591347l-27.147936 0c-22.85394899 0-41.591347 18.737399-41.591347 41.59134701L69.48865 955.110507C69.48865 977.964456 88.226049 996.666367 111.079998 996.666367z">
    </path>
</svg>