<?xml version="1.0" standalone="no"?>
<!DOCTYPE svg PUBLIC "-//W3C//DTD SVG 1.1//EN" "http://www.w3.org/Graphics/SVG/1.1/DTD/svg11.dtd">
<svg t="1695700326082" class="icon" viewBox="0 0 1024 1024" version="1.1" xmlns="http://www.w3.org/2000/svg"
    xmlns:xlink="http://www.w3.org/1999/xlink" width="16" height="16">
    <path
        d="M181.973333 903.466667H64A38.4 38.4 0 1 0 64 981.333333h117.973333a38.4 38.4 0 1 0 0-76.8zM181.973333 762.026667H64a38.4 38.4 0 1 0 0 76.8h117.973333a38.4 38.4 0 0 0 0-76.8zM181.973333 620.586667H64a38.4 38.4 0 1 0 0 76.8h117.973333a38.4 38.4 0 0 0 0-76.8zM181.973333 479.146667H64a38.4 38.4 0 0 0 0 76.8h117.973333a38.4 38.4 0 1 0 0-76.8zM441.173333 903.466667h-117.76a38.4 38.4 0 1 0 0 76.8h117.76a38.4 38.4 0 1 0 0-76.8zM441.173333 762.026667h-117.76a38.4 38.4 0 0 0 0 76.8h117.76a38.4 38.4 0 0 0 0-76.8zM441.173333 620.586667h-117.76a38.4 38.4 0 1 0 0 76.8h117.76a38.4 38.4 0 1 0 0-76.8zM441.173333 479.146667h-117.76a38.4 38.4 0 0 0 0 76.8h117.76a38.4 38.4 0 1 0 0-76.8zM441.173333 337.706667h-117.76a38.4 38.4 0 1 0 0 76.8h117.76a38.4 38.4 0 1 0 0-76.8zM441.173333 196.266667h-117.76a38.4 38.4 0 0 0 0 76.8h117.76a38.4 38.4 0 0 0 0-76.8zM441.173333 54.826667h-117.76a38.4 38.4 0 1 0 0 76.586666h117.76a38.4 38.4 0 1 0 0-76.586666zM700.586667 903.466667h-117.76a38.4 38.4 0 1 0 0 76.8h117.76a38.4 38.4 0 0 0 0-76.8zM960 903.466667h-117.973333a38.4 38.4 0 1 0 0 76.8H960a38.4 38.4 0 1 0 0-76.8zM700.586667 762.026667h-117.76a38.4 38.4 0 0 0 0 76.8h117.76a38.4 38.4 0 0 0 0-76.8zM960 762.026667h-117.973333a38.4 38.4 0 0 0 0 76.8H960a38.4 38.4 0 0 0 0-76.8zM700.586667 620.586667h-117.76a38.4 38.4 0 0 0 0 76.8h117.76a38.4 38.4 0 0 0 0-76.8zM960 620.586667h-117.973333a38.4 38.4 0 1 0 0 76.8H960a38.4 38.4 0 0 0 0-76.8zM960 479.146667h-117.973333a38.4 38.4 0 0 0 0 76.8H960a38.4 38.4 0 0 0 0-76.8zM842.026667 414.506667H960a38.4 38.4 0 1 0 0-76.8h-117.973333a38.4 38.4 0 1 0 0 76.8z">
    </path>
</svg>