<?xml version="1.0" standalone="no"?>
<!DOCTYPE svg PUBLIC "-//W3C//DTD SVG 1.1//EN" "http://www.w3.org/Graphics/SVG/1.1/DTD/svg11.dtd"><svg t="1697783334023"
    class="icon" viewBox="0 0 1024 1024" version="1.1" xmlns="http://www.w3.org/2000/svg"
    xmlns:xlink="http://www.w3.org/1999/xlink" width="16" height="16">
    <path
        d="M644.096 736.1024h47.1552c117.9136-37.9904 186.0608-127.8464 204.3904-269.6192 2.6112-75.9296-9.216-132.864-35.3792-170.8544-68.096-108.8512-178.176-164.5056-330.1376-167.0656-55.04-2.5088-120.8832 2.1504-188.672 34.2016-138.496 65.4336-201.728 183.5008-212.224 315.136a435.5584 435.5584 0 0 0 35.328 208.8448c65.536 131.584 170.3424 201.216 314.4704 208.8448 128.3584 5.0176 242.3808-34.2016 341.9136-117.76l-43.2128-45.568c-117.9136 93.696-246.272 120.32-385.1776 79.7696-120.5248-50.6368-186.0608-146.8416-196.5056-288.5632a395.6224 395.6224 0 0 1 47.104-174.6432c57.7024-101.2736 150.4768-164.6592 279.0912-163.328 189.2864 2.048 292.1472 91.136 310.528 227.84 2.56 126.5664-44.544 211.4048-141.5168 254.4128h-23.552c-18.3808-12.6464-24.9344-30.3616-19.6608-53.1456l98.2528-315.136H667.648l-11.776 41.728-23.6032-30.3616c-65.536-43.008-133.632-44.288-204.3904-3.7888-62.8736 45.568-103.5264 103.1168-121.856 172.7488-18.3296 69.632-17.0496 126.5664 3.9424 170.8544 20.992 44.288 57.6512 70.2464 110.08 77.824 60.2112 5.12 113.92-16.384 161.1264-64.512v3.7888c0 32.9216 20.992 55.7056 62.8736 68.352z m-176.896-75.9296l-51.0976-3.84c-39.2704-12.6464-56.32-45.568-51.0464-98.7136 20.9408-126.5664 77.312-198.656 168.96-216.4224 55.04 2.56 86.528 22.784 94.3616 60.7744-7.8848 131.584-61.5936 217.7024-161.1776 258.2016z"
        opacity=".7"></path>
</svg>